<svg xmlns="http://www.w3.org/2000/svg" version="1.1" xmlns:xlink="http://www.w3.org/1999/xlink" xmlns:svgjs="http://svgjs.dev/svgjs" width="100%" height="100%" viewBox="0 0 1000 600"><rect width="1000" height="600" x="0" y="0" fill="#00214d"/><g><circle r="166.66666666666666" cx="346.2975413004557" cy="368.5197450909935" fill="#4831d4" transform="matrix(0.6958714397745045,0,0,0.6958714397745045,0,43.55760392028799)"/><path d="M251.53664959501774 443.31972475645534L251.53664959501774 443.31972475645534Q244.5638931024199 443.31972475645534 238.5913270903177 441.8623043420189Q232.61876107821544 440.4334607984538 226.13181139042976 435.80400771730274Q219.64486170264408 431.1745546361518 215.12971610497829 423.54453011351393L215.12971610497829 423.54453011351393Q204.84204259130937 406.28410010724724 204.84204259130937 371.5060482568721L204.84204259130937 371.5060482568721Q204.84204259130937 352.3595447730993 209.98587934814384 337.7567637578637Q215.12971610497829 323.15398274262816 222.95977872371517 315.00957454430693Q230.76126447158077 306.893743216857 241.67762914441835 301.74990646002254Q252.56541694638463 296.60606970318804 262.05293807565704 295.0629186761377Q271.5118823340582 293.5197676490874 282.1996320399254 293.5197676490874L282.1996320399254 293.5197676490874Q306.89004847273077 293.5197676490874 316.97768389030057 297.7491445380401Q327.06531930787037 301.94994455612164 327.06531930787037 313.8950765803261L327.06531930787037 313.8950765803261Q327.06531930787037 323.35402083872725 323.5503641907002 334.3561161241787Q320.0639859444012 345.35821140963014 313.26269067703123 345.35821140963014L313.26269067703123 345.35821140963014Q311.633809037367 345.35821140963014 299.2886008209643 342.18617874291556Q286.9433926045616 338.98556920532974 280.77078849636024 338.98556920532974L280.77078849636024 338.98556920532974Q263.08170542702396 338.98556920532974 263.08170542702396 368.8198223949696L263.08170542702396 368.8198223949696Q263.08170542702396 383.8512564732747 267.19677483249154 391.13835854545687Q271.3118442379591 398.4540374885104 277.48444834616043 399.2827667437781L277.48444834616043 399.2827667437781L277.48444834616043 380.76495441917405Q277.48444834616043 375.62111766233966 287.9721599559285 371.30601016077287Q298.4598715656965 366.96232578833497 308.1188539201968 366.96232578833497Q317.80641314556834 366.96232578833497 322.23582813062023 368.2197081066722Q326.63666624480084 369.44851355413823 328.2941247553364 371.70608635297117L328.2941247553364 371.70608635297117Q331.18038871333795 375.42107956624045 331.18038871333795 378.2787666533708L331.18038871333795 378.2787666533708L331.18038871333795 435.2896240416194Q331.18038871333795 437.9472730326505 320.3783315239856 439.60473154318606Q309.57627433463324 441.2621900537216 297.9454878900131 441.2621900537216Q286.3147014453929 441.2621900537216 283.22839939129227 440.1191152188694Q280.1420973371916 438.9760403840173 279.7420211449934 433.83220362718293L279.7420211449934 433.83220362718293L278.2846007305569 421.71561037775064L276.65571909089266 421.71561037775064Q275.19829867645626 430.5458634769831 269.3400401478392 436.9185056812836Q263.4817816192222 443.31972475645534 251.53664959501774 443.31972475645534ZM415.1106584623535 443.51976285255444L415.1106584623535 443.51976285255444Q398.0502665521859 443.51976285255444 385.7907889483971 440.3191533149686Q373.55988821547965 437.14712064825403 363.27221470181075 428.9169818373189L363.27221470181075 428.9169818373189Q342.49682957837376 412.65674231154776 342.49682957837376 366.56224959613667L342.49682957837376 366.56224959613667Q342.49682957837376 347.2157080162649 348.15505001089167 332.8129650971284Q353.8132704434096 318.4102221779919 363.9009058609794 309.98004527095765L363.9009058609794 309.98004527095765Q383.64752363304945 293.5197676490874 415.1106584623535 293.5197676490874L415.1106584623535 293.5197676490874Q431.37089798812474 293.5197676490874 443.40176062494305 296.40603160708895Q455.46120013263277 299.2922955650905 466.14894983849996 306.893743216857L466.14894983849996 306.893743216857Q487.75306421720467 322.5252915834595 487.75306421720467 366.56224959613667L487.75306421720467 366.56224959613667Q487.75306421720467 406.0554851402768 468.2064845412337 424.8019124318513Q448.6599048652628 443.51976285255444 415.1106584623535 443.51976285255444ZM408.33794006585487 408.2273273264958Q410.79555096078684 411.1993218971113 415.1106584623535 411.1993218971113Q419.45434283479153 411.1993218971113 421.91195372972356 408.2273273264958Q424.3695646246556 405.2553327558803 426.02702313519114 395.4820429178949Q427.6844816457267 385.70875307990946 427.6844816457267 368.2197081066722Q427.6844816457267 350.7306631334351 426.02702313519114 341.2431420041627Q424.3695646246556 331.7841977457615 421.91195372972356 328.89793378775994Q419.45434283479153 326.0402467006297 415.1106584623535 326.0402467006297Q410.79555096078684 326.0402467006297 408.33794006585487 328.89793378775994Q405.85175230005154 331.7841977457615 404.22287066038734 341.2431420041627Q402.5654121498517 350.7306631334351 402.5654121498517 368.2197081066722Q402.5654121498517 385.70875307990946 404.22287066038734 395.4820429178949Q405.85175230005154 405.2553327558803 408.33794006585487 408.2273273264958Z " fill="black" transform="matrix(0.6958714397745045,0,0,0.6958714397745045,0,43.55760392028799)"/><path d="M742.4428249666031 365.7122805692959L742.4428249666031 365.7122805692959L742.4428249666031 414.79873355473853Q742.4428249666031 416.5589831170854 733.3741974745127 417.60622019848154Q724.327851622452 418.65345727987767 714.6130565695001 418.65345727987767Q704.8982615165482 418.65345727987767 702.0239299527161 417.76219167868953Q699.1273167488544 416.8932077175309 699.1273167488544 414.79873355473853L699.1273167488544 414.79873355473853L699.1273167488544 370.36914333550453Q699.1273167488544 347.4190541049072 694.4704539826457 347.4190541049072L694.4704539826457 347.4190541049072Q693.3563719811605 347.4190541049072 692.2422899796752 348.3771646261846Q691.1059263381602 349.3575567874916 691.1059263381602 351.76397391069986L691.1059263381602 351.76397391069986L691.1059263381602 414.79873355473853Q691.1059263381602 416.5589831170854 682.0372988460697 417.60622019848154Q672.9909529940091 418.65345727987767 663.1870313809384 418.65345727987767Q653.4053914078974 418.65345727987767 650.5979047641545 417.76219167868953Q647.7904181204115 416.8932077175309 647.7904181204115 414.79873355473853L647.7904181204115 414.79873355473853L647.7904181204115 370.36914333550453Q647.7904181204115 352.56611295176936 645.5399724774111 349.0233321870461L645.5399724774111 349.0233321870461Q644.4258904759258 347.4190541049072 642.665640913579 347.4190541049072L642.665640913579 347.4190541049072Q639.6130562295093 347.4190541049072 639.6130562295093 351.76397391069986L639.6130562295093 351.76397391069986L639.6130562295093 414.79873355473853Q639.6130562295093 416.5589831170854 630.4775838173298 417.60622019848154Q621.3198297651205 418.65345727987767 611.6273163521984 418.65345727987767Q601.9125212992465 418.65345727987767 599.1050346555035 417.76219167868953Q596.2975480117606 416.8932077175309 596.2975480117606 414.79873355473853L596.2975480117606 414.79873355473853L596.2975480117606 335.72119308931156Q596.2975480117606 332.3343838047962 605.522146984059 328.96985616031054Q614.7467459563572 325.6053285158249 625.0185820100518 325.6053285158249Q635.2904180637463 325.6053285158249 636.5604715454396 331.5322447637268L636.5604715454396 331.5322447637268L638.0087781473704 338.59552465314357L639.1228601488558 338.59552465314357Q643.7797229150643 329.46005224096405 654.5417550494124 325.6053285158249L654.5417550494124 325.6053285158249Q659.0203646953834 324.157021913894 666.0836445848001 324.157021913894L666.0836445848001 324.157021913894Q680.2102043636339 324.157021913894 686.6273166921892 338.59552465314357L686.6273166921892 338.59552465314357Q688.6995092149518 333.78269040672706 697.0551242260917 328.96985616031054Q705.3884575972018 324.157021913894 715.5043221706884 324.157021913894L715.5043221706884 324.157021913894Q731.3688498718392 324.157021913894 736.916978239236 334.0277884470538Q742.4428249666031 343.8985549802137 742.4428249666031 365.7122805692959ZM807.7503118936718 408.22564974597526L807.7503118936718 408.22564974597526L807.7503118936718 398.7559527333501L806.4579767719488 398.7559527333501Q805.6558377308794 399.5580917744196 804.0515596487405 400.8504268961425Q802.4472815666018 402.12048037783575 796.5203653186999 404.2149545406281Q790.5711674307684 406.3094287034205 783.2850711410545 406.3094287034205Q775.9766932113108 406.3094287034205 770.4508464839437 403.9698565003014Q764.9027181165469 401.652565937212 761.6941619522693 397.708715651954Q758.4856057879915 393.7871470067257 756.7253562256448 387.21406319796233L756.7253562256448 387.21406319796233Q753.672771541575 376.7862556640599 753.672771541575 357.69089015860175L753.672771541575 357.69089015860175L753.672771541575 335.5429399690738Q753.672771541575 332.1784123245882 763.1424685542001 328.9030112402214Q772.6121655668253 325.6053285158249 783.0399731007277 325.6053285158249L783.0399731007277 325.6053285158249Q796.9882797593237 325.6053285158249 796.9882797593237 332.8245798854497L796.9882797593237 332.8245798854497L796.9882797593237 353.0340273923931Q796.9882797593237 385.11958903516995 802.1353386061859 385.11958903516995L802.1353386061859 385.11958903516995Q805.1656416502259 385.11958903516995 805.1656416502259 380.79695086940706L805.1656416502259 380.79695086940706L805.1656416502259 335.5429399690738Q805.1656416502259 332.1784123245882 815.2815062237124 328.9030112402214Q825.3973707971991 325.6053285158249 836.9392603325869 325.6053285158249Q848.4811498679746 325.6053285158249 848.4811498679746 331.8664693641723L848.4811498679746 331.8664693641723L848.4811498679746 407.73545366532176Q848.4811498679746 443.51976755302974 800.0408644433935 443.51976755302974L800.0408644433935 443.51976755302974Q774.5283866093799 443.51976755302974 765.3929141972004 438.55096182640534L765.3929141972004 438.55096182640534Q761.3822189918533 436.30051618340497 761.3822189918533 433.8940990601967L761.3822189918533 433.8940990601967Q761.3822189918533 430.03937533505757 764.590775156131 420.97074784296717Q767.7993313204087 411.9244019909064 770.5176914040328 411.9244019909064L770.5176914040328 411.9244019909064Q771.1638589648943 411.9244019909064 775.0185826900336 412.8825125121838L775.0185826900336 412.8825125121838Q786.8946968258668 416.09106867646153 794.8269606764422 416.09106867646153Q802.7592245270176 416.09106867646153 805.2547682103448 414.3308191141148Q807.7503118936718 412.54828791173827 807.7503118936718 408.22564974597526ZM880.4107400305435 415.93509719625354L880.4107400305435 415.93509719625354Q876.5560163054043 414.15256599387703 872.1442515795225 410.6320668691835Q867.7324868536407 407.11156774449 864.8581552898086 402.2987334980734L864.8581552898086 402.2987334980734Q858.1068183608077 390.73456232265596 858.1068183608077 372.1293928978513L858.1068183608077 372.1293928978513Q858.1068183608077 360.5875033624635 861.8055706057389 351.5188758703731Q865.5043228506702 342.4502483782827 870.7850715377105 337.4814426516583Q876.0881018647806 332.5126369250338 882.9731286339597 329.30408076075616L882.9731286339597 329.30408076075616Q894.0471037287236 324.157021913894 905.1210788234876 324.157021913894L905.1210788234876 324.157021913894Q923.7262482482922 324.157021913894 931.0346261780358 327.0536351177558Q938.3207224677498 329.9279666815879 938.3207224677498 336.8352750907968Q938.3207224677498 343.7425835000057 935.8474604244524 351.5188758703731Q933.3519167411253 359.2951682407406 929.3412215357782 359.2951682407406L929.3412215357782 359.2951682407406Q928.0711680540849 359.2951682407406 921.5649291654107 356.5768081571165Q915.0586902767366 353.8361664334626 910.3349825904388 353.8361664334626Q905.6112749041412 353.8361664334626 903.115731220814 357.6017635984829Q900.620187537487 361.389642403533 900.620187537487 372.21851945797016Q900.620187537487 383.0473965124073 902.8706331804873 386.9689651576356Q905.1210788234876 390.89053380286384 909.8447865097853 390.89053380286384Q914.5907758361127 390.89053380286384 921.6540557255296 387.6819776385862Q928.6950539749166 384.47342147430845 929.4971930159861 384.47342147430845L929.4971930159861 384.47342147430845Q932.5497777000559 384.47342147430845 935.3572643437988 391.69267284393334Q938.1647509875418 398.9119242135581 938.1647509875418 404.526897501044L938.1647509875418 404.526897501044Q938.1647509875418 413.19445547259977 929.1852500555701 416.64810967720416Q920.2057491235987 420.10176388180867 904.8759807831608 420.10176388180867Q889.5684940827527 420.10176388180867 880.4107400305435 415.93509719625354ZM997.367068546471 420.10176388180867L997.367068546471 420.10176388180867Q985.3349829304298 420.10176388180867 976.667424958874 418.0072897190163Q967.9998669873183 415.93509719625354 960.9588687379312 410.6320668691835L960.9588687379312 410.6320668691835Q946.3421128784439 400.0482878550731 946.3421128784439 371.1712823765739L946.3421128784439 371.1712823765739Q946.3421128784439 345.50283306235247 961.2708116983471 334.42885796758856L961.2708116983471 334.42885796758856Q975.2191183569431 324.157021913894 997.367068546471 324.157021913894L997.367068546471 324.157021913894Q1006.8367655590962 324.157021913894 1013.5658208480673 325.0482875150823Q1020.3171577770684 325.9172714762408 1027.2913111063663 328.81388468010255Q1034.2654644356644 331.7104978839644 1038.5212576813383 336.6793036105888Q1042.7770509270122 341.6481093372133 1045.4954110106364 350.3825122288581Q1048.2137710942604 359.1391967605326 1048.2137710942604 371.1712823765739L1048.2137710942604 371.1712823765739Q1048.2137710942604 395.5473965690725 1034.4214359158723 407.8245802254405Q1020.6291007374842 420.10176388180867 997.367068546471 420.10176388180867ZM991.752095258985 388.8183412801012Q992.8661772604703 394.5892860477951 994.0693858220745 395.70336804928036Q995.2725943836787 396.8397316907955 997.2779419863522 396.8397316907955Q999.2832895890258 396.8397316907955 1000.4864981506298 395.70336804928036Q1001.689706712234 394.5892860477951 1002.7369437936302 388.8183412801012Q1003.7841808750263 383.0473965124073 1003.7841808750263 374.2907119807328Q1003.7841808750263 365.556309089088 1003.3831113544916 360.8103197627606Q1002.9820418339569 356.08661207646287 1002.4250008332142 353.52422347304673Q1001.8679598324716 350.9618348696305 1000.8875676711646 349.5135282676996L1000.8875676711646 349.5135282676996Q999.4615427092634 347.4190541049072 997.4561951065898 347.4190541049072Q995.4508475039163 347.4190541049072 994.1585123821933 348.62226266651135Q992.8661772604703 349.8254712281155 991.752095258985 355.68554255592824Q990.6380132574998 361.5456138837409 990.6380132574998 372.2853643780593Q990.6380132574998 383.0473965124073 991.752095258985 388.8183412801012ZM1088.0087801873156 420.10176388180867L1088.0087801873156 420.10176388180867Q1082.0818639394138 420.10176388180867 1076.9348050925516 418.3415143194618Q1071.8100278857191 416.5589831170854 1068.5123451613226 413.99659451366915Q1065.2369440769558 411.4342059102529 1062.8305269537477 407.11156774449Q1060.4241098305395 402.76664793869725 1059.1317747088165 398.845079293469Q1057.8394395870935 394.901229008211 1057.2155536662617 389.1302842405171L1057.2155536662617 389.1302842405171Q1056.2351615049547 380.64097938919906 1056.2351615049547 369.72297577464303L1056.2351615049547 369.72297577464303Q1056.2351615049547 347.4190541049072 1064.4348050358865 335.7880380094007Q1072.6121669267886 324.157021913894 1086.8946981858303 324.157021913894L1086.8946981858303 324.157021913894Q1101.4891724052877 324.157021913894 1108.062256214051 331.0643303231029L1108.062256214051 331.0643303231029Q1109.510562815982 332.6686084052418 1110.3127018570515 334.91905404824206L1110.3127018570515 334.91905404824206L1111.5827553387446 334.91905404824206L1109.6665342961899 323.84507895347815L1109.6665342961899 303.7916029267426Q1109.6665342961899 300.24882216201934 1118.6460352281615 296.8842945175337Q1127.625536160133 293.51976687304807 1138.0533436940354 293.51976687304807L1138.0533436940354 293.51976687304807Q1148.9713473085917 293.51976687304807 1152.0239319926613 297.68643355860314L1152.0239319926613 297.68643355860314Q1153.1380139941466 299.29071164074196 1153.1380139941466 300.89498972288084L1153.1380139941466 300.89498972288084L1153.1380139941466 414.79873355473853Q1153.1380139941466 416.5589831170854 1144.2476396222937 417.60622019848154Q1135.3349836104114 418.65345727987767 1127.0684951593903 418.65345727987767Q1118.8020067083694 418.65345727987767 1116.48471614528 418.09641627913504Q1114.1674255821904 417.5393752783924 1113.5881029414181 416.8932077175309Q1113.0310619406755 416.2470401566694 1112.8750904604676 414.79873355473853L1112.8750904604676 414.79873355473853L1111.5827553387446 405.663261142559L1110.3127018570515 405.663261142559Q1108.8643952551206 411.278234430045 1104.5417570893574 415.13295815518416L1104.5417570893574 415.13295815518416Q1099.0827552820795 420.10176388180867 1088.0087801873156 420.10176388180867ZM1105.9677820512588 396.6837602105875L1105.9677820512588 396.6837602105875Q1108.5524522947046 396.6837602105875 1109.822505776398 393.47520404630984L1109.822505776398 393.47520404630984L1109.822505776398 350.62761026918486Q1109.822505776398 349.0233321870461 1108.15138277417 348.1543482258875Q1106.4579781319121 347.2630826246992 1105.1656430101893 347.2630826246992L1105.1656430101893 347.2630826246992Q1099.7289228429408 347.2630826246992 1099.7289228429408 372.2853643780593L1099.7289228429408 372.2853643780593Q1099.7289228429408 385.60978511582357 1101.2440743649609 391.1356318431906Q1102.759225886981 396.6837602105875 1105.9677820512588 396.6837602105875ZM1211.8501354724222 382.4012289515458L1206.569386785382 382.4012289515458Q1206.569386785382 392.82903648544834 1216.506998238631 392.82903648544834L1216.506998238631 392.82903648544834Q1222.2779430063247 392.82903648544834 1231.591668538742 388.88518620019033Q1240.905394071159 384.96361755496207 1241.3733085117829 384.96361755496207L1241.3733085117829 384.96361755496207Q1244.4258931958527 384.96361755496207 1249.3946989224771 394.0990899671416Q1254.3635046491015 403.25684401935075 1254.3635046491015 407.57948218511376L1254.3635046491015 407.57948218511376Q1254.3635046491015 413.84062303346127 1241.529279991991 417.0491791977389Q1228.69505533488 420.25773536201655 1216.4401533185417 420.25773536201655Q1204.1629696621737 420.25773536201655 1195.8964812111526 418.3415143194618Q1187.6299927601317 416.4030116368774 1182.4160889931804 413.4395535129265Q1177.2021852262292 410.4760953889755 1173.2806165810011 406.1311755831829Q1169.336766295743 401.80853741741987 1167.4205452531883 397.8869687721916Q1165.5043242106335 393.9431184869336 1164.3679605691186 389.1302842405171L1164.3679605691186 389.1302842405171Q1162.7636824869796 382.0670043511003 1162.7636824869796 374.53581002105955L1162.7636824869796 374.53581002105955Q1162.7636824869796 345.3468615821446 1178.0043242672987 334.27288648738056L1178.0043242672987 334.27288648738056Q1185.557800237369 328.65791319989467 1194.8492441297565 326.4074675568943Q1204.1629696621737 324.157021913894 1216.8412228390764 324.157021913894L1216.8412228390764 324.157021913894Q1257.4160893331714 324.157021913894 1257.4160893331714 352.3878598315317L1257.4160893331714 352.3878598315317Q1257.4160893331714 382.4012289515458 1211.8501354724222 382.4012289515458L1211.8501354724222 382.4012289515458ZM1206.2351621849364 358.98322528032475L1206.2351621849364 358.98322528032475L1206.2351621849364 369.56700429443515Q1210.892024951145 369.56700429443515 1213.8554830750957 365.8682520495039Q1216.8412228390764 362.1917814446024 1216.8412228390764 356.88875111753237L1216.8412228390764 356.88875111753237Q1216.8412228390764 347.2630826246992 1211.8501354724222 347.2630826246992L1211.8501354724222 347.2630826246992Q1206.2351621849364 347.2630826246992 1206.2351621849364 358.98322528032475Z " fill="red" transform="matrix(0.6958714397745045,0,0,0.6958714397745045,0,43.55760392028799)"/></g></svg>